<?xml version="1.0" standalone="no"?>
<!DOCTYPE svg PUBLIC "-//W3C//DTD SVG 20010904//EN"
 "http://www.w3.org/TR/2001/REC-SVG-20010904/DTD/svg10.dtd">
<svg version="1.0" xmlns="http://www.w3.org/2000/svg"
 width="260.000000pt" height="260.000000pt" viewBox="0 0 260.000000 260.000000"
 preserveAspectRatio="xMidYMid meet">
<metadata>
Created by potrace 1.11, written by Peter Selinger 2001-2013
</metadata>
<g transform="translate(0.000000,260.000000) scale(0.100000,-0.100000)"
fill="#000000" stroke="none">
<path d="M1313 2447 c0 -8 6 -14 14 -14 9 0 10 4 2 14 -6 7 -12 13 -14 13 -1
0 -2 -6 -2 -13z"/>
<path d="M1263 2414 c-4 -10 -8 -12 -12 -5 -5 8 -12 7 -23 -2 -16 -12 -28 -55
-31 -109 0 -16 -4 -28 -7 -28 -4 0 -5 -11 -2 -25 2 -14 0 -26 -4 -26 -5 -1
-19 -3 -32 -4 -12 -1 -25 -5 -29 -9 -3 -3 -13 0 -21 7 -13 10 -14 9 -7 -2 6
-11 4 -13 -7 -8 -9 3 -21 0 -27 -6 -17 -17 -26 0 -10 20 13 16 12 17 -3 5 -14
-11 -18 -10 -30 11 -7 13 -23 42 -35 64 -24 45 -53 73 -53 53 0 -7 -7 -10 -16
-6 -8 3 -13 2 -10 -2 3 -5 -17 -16 -45 -26 -27 -10 -51 -21 -53 -25 -5 -8 26
-142 38 -159 10 -17 4 -23 -68 -67 -55 -33 -85 -38 -70 -12 4 7 4 9 -1 5 -4
-4 -16 -3 -27 3 -18 10 -29 18 -80 62 -12 9 -25 17 -30 17 -5 0 -6 5 -2 12 4
7 3 8 -4 4 -6 -4 -8 -14 -5 -23 5 -13 2 -15 -11 -10 -9 4 -15 3 -11 -2 3 -6
-5 -20 -17 -33 -64 -67 -63 -63 -32 -105 16 -21 33 -41 38 -44 5 -4 5 -12 2
-18 -4 -6 0 -11 8 -11 17 0 17 -1 21 -38 2 -16 -2 -21 -11 -18 -8 3 -11 0 -8
-8 3 -7 -2 -19 -11 -26 -8 -7 -15 -18 -15 -24 0 -6 -7 -19 -14 -29 -13 -16
-16 -16 -80 0 -36 10 -66 23 -66 30 0 6 -4 15 -10 18 -6 3 -7 -1 -4 -10 5 -11
2 -16 -7 -15 -24 4 -39 0 -37 -7 2 -5 -8 -36 -21 -71 -23 -62 -23 -63 -5 -81
10 -9 22 -17 26 -17 4 1 29 -12 57 -29 34 -19 47 -32 38 -37 -9 -6 -9 -8 1 -8
9 0 11 -7 7 -21 -4 -11 -10 -41 -13 -66 -5 -29 -13 -47 -22 -49 -80 -17 -93
-14 -72 12 4 5 -4 -2 -17 -14 -17 -17 -32 -23 -55 -20 l-31 3 3 -82 c3 -79 5
-83 28 -89 18 -5 24 -11 20 -23 -5 -13 -4 -13 8 2 14 18 42 24 31 7 -3 -5 -1
-10 4 -10 6 0 11 5 11 11 0 8 4 8 14 0 7 -6 21 -9 30 -5 9 3 16 1 16 -6 0 -6
4 -9 9 -5 14 8 20 -6 25 -56 3 -24 7 -54 10 -67 3 -15 0 -22 -10 -22 -8 0 -14
-5 -14 -12 0 -6 -3 -9 -6 -5 -4 3 -13 -1 -21 -9 -8 -8 -19 -12 -24 -9 -5 4 -9
1 -9 -5 0 -7 -7 -9 -16 -6 -8 3 -13 2 -10 -3 3 -5 -5 -16 -18 -25 -24 -15 -24
-15 -7 -60 9 -25 20 -48 24 -52 4 -4 7 -16 7 -27 0 -18 4 -19 43 -12 23 4 54
8 69 9 14 0 24 5 21 9 -3 5 1 7 8 6 8 -1 22 1 32 6 12 5 22 2 32 -11 18 -24
19 -38 3 -28 -8 4 -10 3 -5 -2 5 -5 14 -9 20 -9 7 -1 11 -6 9 -13 -1 -7 3 -12
9 -12 6 0 8 -7 5 -17 -4 -10 -4 -14 0 -11 3 4 12 2 19 -5 10 -9 1 -27 -41 -84
-30 -40 -54 -75 -54 -78 0 -17 101 -107 126 -111 18 -3 24 -1 16 4 -17 11 52
67 70 56 7 -5 8 -3 4 5 -5 8 0 14 13 18 11 3 18 9 15 14 -3 5 2 9 10 9 9 0 16
-4 16 -9 0 -5 9 -11 20 -14 14 -4 18 -11 14 -24 -4 -14 -4 -15 4 -4 11 15 36
6 27 -10 -3 -5 2 -6 11 -2 13 5 15 3 9 -7 -6 -10 -4 -12 8 -7 22 8 21 -1 -3
-93 -11 -41 -20 -80 -20 -85 0 -13 114 -66 150 -71 18 -2 21 -1 10 6 -12 7
-11 13 10 34 13 15 19 26 14 26 -5 0 -2 6 6 13 8 7 16 18 18 25 6 31 35 63 51
57 9 -4 38 -11 64 -16 27 -5 52 -11 57 -14 4 -3 14 -46 21 -95 9 -72 15 -90
28 -90 10 0 23 -6 30 -12 11 -11 13 -11 7 0 -5 9 8 12 52 12 l60 0 7 80 c4 44
11 83 16 86 5 3 7 10 4 15 -4 5 0 9 7 10 7 0 24 2 38 5 14 2 37 6 52 8 15 2
31 7 36 10 5 3 16 -2 23 -11 12 -14 12 -16 -1 -9 -8 4 -6 0 4 -8 11 -9 17 -16
13 -16 -4 0 1 -10 13 -22 11 -12 20 -27 20 -34 0 -6 9 -23 20 -37 20 -25 20
-25 62 -8 24 9 57 24 74 33 l32 17 -19 67 c-10 37 -16 71 -12 76 3 6 -1 14 -8
19 -11 7 -8 14 16 34 16 14 44 35 62 46 30 19 34 19 57 3 14 -9 23 -21 19 -28
-3 -6 -3 -8 2 -4 11 11 47 -11 39 -24 -4 -6 -3 -8 4 -4 6 3 18 -2 28 -11 9
-10 27 -18 39 -18 11 -1 28 -5 36 -10 12 -8 12 -6 0 9 -13 15 -11 19 10 34 13
9 28 16 32 14 5 -1 6 1 4 6 -3 4 3 19 13 32 18 24 18 25 -12 62 -16 21 -26 43
-22 49 4 7 3 9 -4 5 -6 -3 -22 9 -36 27 -28 37 -32 47 -15 47 5 0 8 -4 4 -9
-3 -5 0 -13 7 -17 7 -4 10 -4 6 1 -4 4 -2 15 5 23 10 13 9 14 -2 8 -9 -6 -12
-5 -9 5 3 8 11 13 18 11 7 -2 10 3 7 12 -4 9 0 21 6 28 7 7 16 21 20 31 3 9
11 17 17 17 6 0 8 -5 4 -12 -4 -6 -3 -8 3 -5 13 8 143 -24 143 -35 0 -5 8 -4
19 1 10 6 22 7 26 3 5 -4 5 -1 1 6 -4 7 0 24 8 37 9 14 14 25 11 25 -3 0 2 16
10 36 8 20 15 38 15 40 0 2 -20 15 -45 30 -25 14 -43 30 -39 35 3 5 -1 6 -8 4
-8 -3 -29 6 -48 20 -19 14 -29 25 -24 25 5 0 10 8 11 18 1 9 4 31 8 47 3 17 6
37 6 46 0 21 48 32 68 16 11 -9 13 -9 8 -1 -10 17 61 28 79 13 8 -6 17 -9 21
-5 3 3 0 6 -7 6 -7 0 -10 3 -6 8 4 4 13 7 19 7 8 0 13 28 15 81 l3 81 -32 7
c-17 3 -45 6 -61 6 -20 0 -27 4 -22 13 5 8 4 9 -5 2 -6 -6 -27 -9 -46 -7 -28
3 -35 9 -36 26 0 11 -2 30 -4 41 -2 10 1 25 7 32 8 11 7 12 -8 7 -10 -4 -16
-4 -12 0 4 5 3 19 -2 32 -10 24 4 35 13 12 4 -10 6 -10 6 0 1 20 23 38 74 62
69 32 71 38 41 111 -14 35 -30 69 -35 75 -5 6 -5 15 -1 20 4 5 -2 1 -13 -8
-11 -9 -33 -18 -50 -19 -16 -2 -34 -6 -40 -10 -5 -4 -26 -11 -46 -17 -36 -10
-37 -9 -69 37 -18 25 -26 40 -16 32 14 -12 16 -12 10 3 -3 9 -12 16 -19 16
-24 0 -23 25 3 60 36 49 49 60 56 52 4 -3 4 1 1 9 -3 9 1 22 10 29 20 17 19
33 -5 55 -11 10 -17 22 -13 28 3 5 1 7 -4 4 -13 -8 -46 27 -36 38 5 4 2 5 -5
1 -7 -4 -15 -1 -18 8 -5 13 -15 10 -54 -19 -36 -26 -56 -34 -76 -31 -14 3 -23
2 -19 -2 3 -4 11 -7 16 -7 5 0 9 -3 9 -7 0 -5 -3 -8 -6 -7 -3 0 -12 -7 -18
-17 -14 -18 -52 -13 -41 6 3 5 0 7 -8 4 -8 -3 -18 0 -23 7 -5 8 -3 10 6 4 9
-5 11 -4 6 4 -4 6 -12 9 -17 5 -12 -7 -41 15 -33 27 3 5 -2 6 -10 3 -11 -4
-14 1 -12 23 5 39 5 40 16 23 6 -9 10 -10 10 -3 0 6 -4 14 -9 17 -5 4 -3 28 5
59 7 28 14 57 14 63 0 6 -31 23 -70 39 -39 16 -67 32 -63 38 3 6 1 7 -6 3 -6
-4 -20 -25 -32 -47 -11 -22 -24 -37 -29 -34 -5 3 -12 0 -16 -6 -4 -8 -3 -9 4
-5 22 13 12 -21 -10 -38 -13 -9 -17 -14 -10 -10 11 5 12 2 3 -15 -14 -26 -39
-27 -58 -3 -8 9 -12 11 -8 4 5 -9 0 -11 -19 -6 -14 3 -37 7 -50 8 -13 0 -24 3
-24 6 1 3 -2 16 -5 30 -6 21 -14 87 -19 148 -1 8 -9 11 -20 9 -10 -3 -18 0
-18 5 0 7 -5 7 -13 -1 -10 -8 -17 -7 -25 1 -9 9 -12 9 -12 0 0 -7 -5 -12 -11
-12 -6 0 -9 7 -5 15 3 8 3 15 0 15 -2 0 -7 -7 -11 -16z"/>
<path d="M913 2375 c0 -8 4 -12 9 -9 5 3 6 10 3 15 -9 13 -12 11 -12 -6z"/>
<path d="M1713 2367 c0 -8 6 -14 14 -14 9 0 10 4 2 14 -6 7 -12 13 -14 13 -1
0 -2 -6 -2 -13z"/>
<path d="M1410 2301 c0 -6 4 -13 10 -16 6 -3 7 1 4 9 -7 18 -14 21 -14 7z"/>
<path d="M1079 2253 c-13 -16 -12 -17 4 -4 9 7 17 15 17 17 0 8 -8 3 -21 -13z"/>
<path d="M1120 2260 c-9 -6 -10 -10 -3 -10 6 0 15 5 18 10 8 12 4 12 -15 0z"/>
<path d="M1156 2261 c-3 -5 2 -15 12 -22 15 -12 16 -12 5 2 -7 9 -10 19 -6 22
3 4 4 7 0 7 -3 0 -8 -4 -11 -9z"/>
<path d="M1453 2233 c0 -9 4 -10 14 -2 7 6 13 12 13 14 0 1 -6 2 -13 2 -8 0
-14 -6 -14 -14z"/>
<path d="M790 2186 c0 -2 7 -7 16 -10 8 -3 12 -2 9 4 -6 10 -25 14 -25 6z"/>
<path d="M2015 2180 c-3 -5 -1 -10 4 -10 6 0 11 5 11 10 0 6 -2 10 -4 10 -3 0
-8 -4 -11 -10z"/>
<path d="M2067 2159 c7 -7 15 -10 18 -7 3 3 -2 9 -12 12 -14 6 -15 5 -6 -5z"/>
<path d="M1935 2140 c-3 -5 -1 -10 4 -10 6 0 11 5 11 10 0 6 -2 10 -4 10 -3 0
-8 -4 -11 -10z"/>
<path d="M634 2120 c0 -13 4 -16 10 -10 7 7 7 13 0 20 -6 6 -10 3 -10 -10z"/>
<path d="M779 2113 c-13 -16 -12 -17 4 -4 9 7 17 15 17 17 0 8 -8 3 -21 -13z"/>
<path d="M1793 2115 c0 -8 4 -12 9 -9 5 3 6 10 3 15 -9 13 -12 11 -12 -6z"/>
<path d="M2073 2115 c0 -8 4 -12 9 -9 5 3 6 10 3 15 -9 13 -12 11 -12 -6z"/>
<path d="M670 2106 c0 -2 7 -7 16 -10 8 -3 12 -2 9 4 -6 10 -25 14 -25 6z"/>
<path d="M667 2079 c7 -7 15 -10 18 -7 3 3 -2 9 -12 12 -14 6 -15 5 -6 -5z"/>
<path d="M507 1899 c7 -7 15 -10 18 -7 3 3 -2 9 -12 12 -14 6 -15 5 -6 -5z"/>
<path d="M2046 1894 c-8 -21 -8 -21 12 -29 13 -5 14 -3 5 6 -6 6 -9 18 -6 25
3 8 3 14 0 14 -3 0 -8 -7 -11 -16z"/>
<path d="M494 1845 c0 -13 3 -22 7 -19 8 4 6 30 -2 38 -3 3 -5 -5 -5 -19z"/>
<path d="M2240 1860 c-12 -7 -10 -9 7 -7 12 0 19 5 17 9 -6 10 -6 10 -24 -2z"/>
<path d="M345 1840 c-3 -6 1 -7 9 -4 18 7 21 14 7 14 -6 0 -13 -4 -16 -10z"/>
<path d="M2199 1843 c0 -5 -2 -16 -4 -26 -2 -11 -1 -16 3 -13 8 8 14 46 7 46
-3 0 -5 -3 -6 -7z"/>
<path d="M2151 1813 c7 -12 15 -20 18 -17 3 2 -3 12 -13 22 -17 16 -18 16 -5
-5z"/>
<path d="M453 1807 c0 -16 34 -20 43 -5 4 7 2 8 -5 4 -6 -4 -18 -3 -25 3 -9 8
-13 7 -13 -2z"/>
<path d="M2119 1815 c-1 -3 -2 -8 -3 -12 -1 -5 -5 -15 -10 -23 -7 -12 -6 -13
4 -3 13 12 23 43 14 43 -2 0 -5 -2 -5 -5z"/>
<path d="M367 1799 c7 -7 15 -10 18 -7 3 3 -2 9 -12 12 -14 6 -15 5 -6 -5z"/>
<path d="M457 1769 c7 -7 15 -10 18 -7 3 3 -2 9 -12 12 -14 6 -15 5 -6 -5z"/>
<path d="M2256 1582 c-3 -5 1 -9 9 -9 8 0 12 4 9 9 -3 4 -7 8 -9 8 -2 0 -6 -4
-9 -8z"/>
<path d="M346 1538 c3 -5 10 -6 15 -3 13 9 11 12 -6 12 -8 0 -12 -4 -9 -9z"/>
<path d="M365 1520 c-3 -6 1 -7 9 -4 18 7 21 14 7 14 -6 0 -13 -4 -16 -10z"/>
<path d="M266 1458 c3 -5 10 -6 15 -3 13 9 11 12 -6 12 -8 0 -12 -4 -9 -9z"/>
<path d="M305 1460 c-3 -6 1 -7 9 -4 18 7 21 14 7 14 -6 0 -13 -4 -16 -10z"/>
<path d="M345 1460 c-3 -6 1 -7 9 -4 18 7 21 14 7 14 -6 0 -13 -4 -16 -10z"/>
<path d="M2299 1433 c-13 -17 -13 -17 6 -3 11 8 22 16 24 17 2 2 0 3 -6 3 -6
0 -17 -8 -24 -17z"/>
<path d="M317 1413 c3 -7 6 -13 8 -13 2 0 5 6 8 13 3 8 -1 14 -8 14 -7 0 -11
-6 -8 -14z"/>
<path d="M2375 1420 c-3 -5 -1 -10 4 -10 6 0 11 5 11 10 0 6 -2 10 -4 10 -3 0
-8 -4 -11 -10z"/>
<path d="M336 1158 c3 -5 10 -6 15 -3 13 9 11 12 -6 12 -8 0 -12 -4 -9 -9z"/>
<path d="M356 1142 c-2 -4 -1 -14 4 -22 7 -11 9 -9 7 8 -1 24 -3 26 -11 14z"/>
<path d="M2253 1135 c0 -8 4 -12 9 -9 5 3 6 10 3 15 -9 13 -12 11 -12 -6z"/>
<path d="M353 1053 c0 -9 4 -10 14 -2 7 6 13 12 13 14 0 1 -6 2 -13 2 -8 0
-14 -6 -14 -14z"/>
<path d="M2235 1051 c-3 -5 -2 -12 3 -15 5 -3 9 1 9 9 0 17 -3 19 -12 6z"/>
<path d="M2290 1020 c0 -5 5 -10 11 -10 5 0 7 5 4 10 -3 6 -8 10 -11 10 -2 0
-4 -4 -4 -10z"/>
<path d="M2216 787 c3 -10 9 -15 12 -12 3 3 0 11 -7 18 -10 9 -11 8 -5 -6z"/>
<path d="M519 713 c-12 -16 -12 -17 2 -6 9 7 20 9 24 5 5 -4 5 -1 1 6 -9 16
-11 15 -27 -5z"/>
<path d="M655 500 c3 -5 8 -10 11 -10 2 0 4 5 4 10 0 6 -5 10 -11 10 -5 0 -7
-4 -4 -10z"/>
<path d="M1790 502 c0 -5 7 -9 15 -9 8 0 12 4 9 9 -3 4 -9 8 -15 8 -5 0 -9 -4
-9 -8z"/>
<path d="M1330 159 c0 -5 5 -7 10 -4 6 3 10 8 10 11 0 2 -4 4 -10 4 -5 0 -10
-5 -10 -11z"/>
</g>
</svg>
